<svg xmlns="http://www.w3.org/2000/svg" viewBox="0 0 191.61 47.9"><defs><style>.cls-1{fill:#80c342;}</style></defs><title>Asset 2</title><g id="Layer_2" data-name="Layer 2"><g id="logo"><path d="M34.84,8.84c-7.91,0-13.41,5.85-13.41,13.51s5.5,13.47,13.41,13.47A13,13,0,0,0,48.3,22.35,13.08,13.08,0,0,0,34.84,8.84Zm0,20.59c-3.88,0-5.06-3.83-5.06-7.08s1.18-7.12,5.06-7.12S40,19.11,40,22.35,38.72,29.43,34.84,29.43Zm26.1-.74H74v6.4H50.33v-6.5L63.05,16H51.36V9.57H73v6.35Zm61-19.12h8.5l-8.55,25.52h-9.63l-8.5-25.52h8.7l4.67,16.86h.1Zm11.57,0h8.35V35.09h-8.35Zm30.28,0-3.65,7.81h-5.63V35.09h-8.35V0h8.35V9.57ZM15.8,20.41H8.35V35.09H0V9.57H8.35v7.82l5.46-7.82h9.57Zm78.6.82,9.75,13.86H94.53l-8.38-12v12H77.8V0h8.35V19.34L93,9.57h9.57Z"/><polygon class="cls-1" points="191.61 35.28 189.48 28.79 184.43 28.09 182.21 23.51 175.35 23.51 173.14 28.09 168.08 28.79 165.95 35.28 169.65 38.83 168.74 43.9 174.23 47.9 178.78 45.47 183.34 47.9 188.83 43.9 187.92 38.83 191.61 35.28"/></g></g></svg>